HIERARCHY
ROOT root
{
	OFFSET	0	13.1	24.9
	CHANNELS 6  Xposition Yposition Zposition Xrotation Yrotation Zrotation
	JOINT spine_1
	{
		OFFSET	0	9.99999	0
		CHANNELS 3  Xrotation Yrotation Zrotation
		JOINT spine_2
		{
			OFFSET	0	112	-10
			CHANNELS 3  Xrotation Yrotation Zrotation
			JOINT spine_3
			{
				OFFSET	0	206.5	19.3
				CHANNELS 3  Xrotation Yrotation Zrotation
				JOINT spine_4
				{
					OFFSET	0	110.4	14.6
					CHANNELS 3  Xrotation Yrotation Zrotation
					JOINT neck_1
					{
						OFFSET	0	71.8	-50.3
						CHANNELS 3  Xrotation Yrotation Zrotation
						JOINT neck_2
						{
							OFFSET	0	86.2	-25.8
							CHANNELS 3  Xrotation Yrotation Zrotation
							JOINT head_ee
							{
								OFFSET	0	179.8	-8.7
								CHANNELS 3  Xrotation Yrotation Zrotation
								End Site
								{
									OFFSET	1	0	0
								}
							}
						}
					}
					JOINT left_clavicle
					{
						OFFSET	-43.2	22.4	-70.8
						CHANNELS 3  Xrotation Yrotation Zrotation
						JOINT left_shoulder
						{
							OFFSET	-93.9	-5.79999	48.7
							CHANNELS 3  Xrotation Yrotation Zrotation
							JOINT left_elbow
							{
								OFFSET	-291.4	-30.8	15.2
								CHANNELS 3  Xrotation Yrotation Zrotation
								JOINT left_lowarm_twist
								{
									OFFSET	-110.7	-3.89999	13.6
									CHANNELS 3  Xrotation Yrotation Zrotation
									JOINT left_hand
									{
										OFFSET	-110.7	-3.89999	13.6
										CHANNELS 3  Xrotation Yrotation Zrotation
										JOINT left_ee
										{
											OFFSET	-80.8	-5.10001	12.1
											CHANNELS 3  Xrotation Yrotation Zrotation
											End Site
											{
												OFFSET	1	0	0
											}
										}
									}
								}
							}
						}
					}
					JOINT right_clavicle
					{
						OFFSET	43.2	22.4	-70.8
						CHANNELS 3  Xrotation Yrotation Zrotation
						JOINT right_shoulder
						{
							OFFSET	93.9	-5.79999	48.7
							CHANNELS 3  Xrotation Yrotation Zrotation
							JOINT right_elbow
							{
								OFFSET	291.4	-30.8	15.2
								CHANNELS 3  Xrotation Yrotation Zrotation
								JOINT right_lowarm_twist
								{
									OFFSET	110.7	-3.89999	13.6
									CHANNELS 3  Xrotation Yrotation Zrotation
									JOINT right_hand
									{
										OFFSET	110.7	-3.89999	13.6
										CHANNELS 3  Xrotation Yrotation Zrotation
										JOINT right_ee
										{
											OFFSET	80.8	-5.10001	12.1
											CHANNELS 3  Xrotation Yrotation Zrotation
											End Site
											{
												OFFSET	1	0	0
											}
										}
									}
								}
							}
						}
					}
				}
			}
		}
	}
	JOINT left_hip
	{
		OFFSET	-82.8	-127.5	0.300001
		CHANNELS 3  Xrotation Yrotation Zrotation
		JOINT left_knee
		{
			OFFSET	-28.2	-396.7	2.2
			CHANNELS 3  Xrotation Yrotation Zrotation
			JOINT left_ankle
			{
				OFFSET	-11.7	-411.3	35.4
				CHANNELS 3  Xrotation Yrotation Zrotation
				JOINT left_toes
				{
					OFFSET	0	-60	-88.6
					CHANNELS 3  Xrotation Yrotation Zrotation
					JOINT left_foot_ee
					{
						OFFSET	-22.5	-16.5	-42.2
						CHANNELS 3  Xrotation Yrotation Zrotation
						End Site
						{
							OFFSET	1	0	0
						}
					}
				}
			}
		}
	}
	JOINT right_hip
	{
		OFFSET	82.8	-127.5	0.300001
		CHANNELS 3  Xrotation Yrotation Zrotation
		JOINT right_knee
		{
			OFFSET	28.2	-396.7	2.2
			CHANNELS 3  Xrotation Yrotation Zrotation
			JOINT right_ankle
			{
				OFFSET	11.7	-411.3	35.4
				CHANNELS 3  Xrotation Yrotation Zrotation
				JOINT right_toes
				{
					OFFSET	0	-60	-88.6
					CHANNELS 3  Xrotation Yrotation Zrotation
					JOINT right_foot_ee
					{
						OFFSET	22.5	-16.5	-42.2
						CHANNELS 3  Xrotation Yrotation Zrotation
						End Site
						{
							OFFSET	1	0	0
						}
					}
				}
			}
		}
	}
}
MOTION
Frames: 9
Frame Time: 0.02
1022.7 759.12 -1531.53 19.5482 55.3443 -7.61864 -4.78626 -0.146092 -0.876058 -4.78584 -0.0900521 -0.883578 -4.78367 0.170953 -0.871548 -4.78473 0.0311687 -0.887607 -2.88388 -2.38466 8.40551 -2.58828 -10.8954 8.45697 -0.0 0.0 -0.0 7.47977 -6.53418 14.504 14.442 -7.97442 49.5208 1.86839 -42.7814 0.731921 -29.8788 -1.9446 3.24316 -0.551672 -13.9636 -9.68656 -0.0 0.0 -0.0 9.15955 3.95321 -18.0271 -17.1999 25.4938 -54.5661 0.633263 17.4167 -0.0969985 29.3681 -0.0854533 3.70979 1.3613 -16.0242 -15.0933 0.0 0.0 0.0 1.12832 -12.5649 -8.95404 -11.7091 0.302297 1.7684 19.2897 29.5457 -2.85634 34.0749 -0.0 -0.0 -0.0 0.0 -0.0 14.3868 28.545 -12.029 -18.9852 -0.306333 -2.88402 1.57895 -18.2177 0.233627 20.2864 -0.0 -0.0 0.0 0.0 0.0 
1019.71 763.635 -1538.53 19.3091 55.8037 -7.55204 -4.89632 -0.0825398 -0.718976 -4.89604 -0.0366234 -0.722771 -4.89508 0.176643 -0.701811 -4.89576 0.0635908 -0.720899 -3.24095 -3.24388 8.67879 -2.91192 -12.6355 8.57901 -0.0 0.0 -0.0 7.4365 -6.62319 14.4118 13.9606 -7.90693 48.781 1.96319 -44.1966 0.797164 -30.7957 -2.02964 3.32436 0.015369 -13.1769 -5.50479 -0.0 0.0 -0.0 9.73908 3.00843 -19.2244 -18.7374 27.3952 -52.949 0.699411 19.1096 -0.11773 28.8147 -0.101466 3.64092 1.08493 -18.3601 -14.128 0.0 0.0 0.0 2.25557 -10.747 -9.56546 -10.1697 0.283293 1.53297 21.6803 28.5366 -3.15695 36.4691 -0.0 -0.0 -0.0 0.0 -0.0 13.9217 28.2476 -12.2366 -15.8077 -0.322002 -2.3968 -4.26555 -19.4081 -0.641448 20.3099 -0.0 -0.0 0.0 0.0 0.0 
1016.86 763.374 -1542.02 19.1417 56.2703 -7.95891 -4.59272 -0.0630451 -0.729142 -4.59242 -0.0165214 -0.731676 -4.59174 0.19474 -0.705479 -4.59243 0.0808823 -0.72738 -3.19217 -3.38361 8.37988 -2.87798 -12.6604 8.25164 -0.0 0.0 -0.0 7.68623 -6.88619 14.9286 13.7738 -7.73541 48.2984 1.83099 -42.2045 0.706652 -33.4253 -2.28061 3.5496 0.694547 -16.2237 -2.24411 -0.0 0.0 -0.0 9.37176 1.12735 -18.4043 -17.616 29.413 -54.1623 0.700303 19.1322 -0.118023 29.1297 -0.0924336 3.68014 0.656155 -21.2262 -12.4631 0.0 0.0 0.0 2.94197 -10.6007 -9.2491 -8.97405 0.264171 1.3505 23.8248 28.2859 -3.43141 35.0744 -0.0 -0.0 -0.0 0.0 -0.0 13.7893 28.7206 -12.0848 -13.3284 -0.315454 -2.0165 -6.25457 -24.5088 -0.963976 20.3945 -0.0 -0.0 0.0 0.0 0.0 
1020.59 761.366 -1544.36 17.1808 57.1026 -6.35852 -4.59655 -0.134367 -0.861975 -4.59614 -0.0792471 -0.868778 -4.59421 0.174159 -0.854825 -4.59523 0.0369749 -0.8716 -2.01484 -3.87811 7.8814 -1.68956 -13.2417 7.82797 -0.0 0.0 -0.0 7.67917 -6.86036 14.9143 13.1261 -8.1811 48.2662 1.79188 -41.5898 0.680536 -34.4166 -2.37788 3.63151 1.20505 -16.8043 0.915397 -0.0 0.0 -0.0 9.56771 1.41587 -18.8189 -17.3328 30.6404 -53.5728 0.641822 17.6376 -0.0995762 29.2778 -0.0881124 3.69856 0.39821 -23.0541 -11.5532 0.0 0.0 0.0 5.07946 -10.5886 -10.1584 -8.2511 0.250763 1.24037 23.9795 27.6644 -3.4369 35.2566 -0.0 -0.0 -0.0 0.0 -0.0 14.6107 28.4598 -12.2476 -11.0179 -0.294547 -1.66263 -7.80802 -25.637 -1.2133 19.9822 -0.0 -0.0 0.0 0.0 0.0 
1014.86 760.641 -1548.6 16.6279 56.9047 -5.90985 -4.39156 -0.0599011 -0.893616 -4.39112 -0.00291891 -0.895617 -4.3904 0.251935 -0.85946 -4.39141 0.113043 -0.888459 -0.873585 -3.77043 7.12213 -0.575379 -12.5 7.18685 -0.0 0.0 -0.0 7.73368 -6.43472 15.0364 11.9111 -8.14412 48.4865 1.76679 -41.1892 0.66395 -35.3379 -2.46954 3.70612 1.5763 -17.1333 3.24907 -0.0 0.0 -0.0 9.54988 1.82328 -18.795 -17.4909 31.3944 -53.3179 0.609959 16.8126 -0.0901403 29.4048 -0.0843674 3.71435 0.206664 -25.1728 -11.1749 0.0 0.0 0.0 3.62528 -9.69286 -9.6456 -7.10879 0.226747 1.06673 27.4872 26.217 -3.83965 36.4183 -0.0 -0.0 -0.0 0.0 -0.0 13.2118 28.9618 -11.408 -8.11679 -0.248119 -1.21993 -8.45553 -25.343 -1.3131 19.8781 -0.0 -0.0 0.0 0.0 0.0 
1011.13 758.231 -1553.95 15.4206 58.2058 -4.52127 -4.18474 -0.0497058 -0.929098 -4.18426 0.00951327 -0.930378 -4.18373 0.270534 -0.890231 -4.18481 0.12655 -0.921781 1.33784 -3.59777 6.67287 1.64591 -11.908 7.00904 -0.0 0.0 -0.0 7.98881 -7.92435 15.5439 11.4693 -8.00204 48.0994 1.60976 -38.5669 0.563242 -36.1334 -2.54965 3.76935 1.70202 -15.7937 4.69378 -0.0 0.0 -0.0 9.64131 2.61286 -19.0087 -18.0457 32.0038 -53.2699 0.600318 16.5615 -0.087372 30.3644 -0.0549503 3.83339 -0.0592095 -28.6704 -10.9034 0.0 0.0 0.0 3.38596 -9.38599 -10.3624 -4.02464 0.144657 0.600593 28.8636 25.5008 -3.9868 35.8812 -0.0 -0.0 -0.0 0.0 -0.0 12.6863 30.6138 -11.0943 -5.69317 -0.192186 -0.852239 -6.70866 -23.3964 -1.02921 20.3148 -0.0 -0.0 0.0 0.0 0.0 
1008.89 758.611 -1556.29 14.5921 58.906 -3.77309 -4.12421 -0.132116 -0.967428 -4.12369 -0.0702909 -0.973873 -4.12167 0.205123 -0.954619 -4.12293 0.0517922 -0.975032 2.47557 -3.97697 5.74553 2.76156 -11.8183 6.0942 -0.0 0.0 -0.0 8.20801 -8.60715 15.9937 10.7315 -7.93029 48.229 1.52606 -37.0854 0.511904 -36.7672 -2.6141 3.81894 1.89051 -14.8492 6.38776 -0.0 0.0 -0.0 9.58907 3.16919 -18.9135 -18.414 32.466 -53.1408 0.603138 16.6351 -0.0881776 31.1557 -0.0291927 3.93118 -0.0754772 -28.9384 -10.9083 0.0 0.0 0.0 2.83275 -9.62162 -10.3551 -1.97873 0.0764006 0.294041 31.5089 24.8814 -4.27655 35.5743 -0.0 -0.0 -0.0 0.0 -0.0 12.0431 31.3849 -10.6892 -4.01073 -0.14423 -0.598501 -5.54739 -20.8139 -0.840299 20.6114 -0.0 -0.0 0.0 0.0 0.0 
1006.16 759.471 -1568.18 13.1991 60.1385 -3.19997 -3.9402 -0.0881108 -0.920909 -3.93973 -0.029335 -0.924649 -3.93856 0.227802 -0.89663 -3.93967 0.0833429 -0.921352 3.48381 -4.15661 5.21946 3.76261 -11.6876 5.61294 -0.0 0.0 -0.0 8.27461 -7.61563 16.1545 9.57871 -7.82572 48.5003 1.49424 -36.5066 0.492846 -36.4543 -2.58221 3.79455 2.2043 -14.9477 8.4642 -0.0 0.0 -0.0 9.7323 0.511095 -19.1254 -18.9316 33.6218 -52.7658 0.709565 19.3665 -0.121076 31.2585 -0.0257448 3.94386 -0.206837 -29.1127 -10.2516 0.0 0.0 0.0 1.49355 -8.05197 -9.79465 2.629 -0.117156 -0.386358 30.2273 26.0339 -4.15972 33.4935 -0.0 -0.0 -0.0 0.0 -0.0 11.6712 30.8776 -10.4592 -3.02214 -0.112581 -0.450085 -7.1937 -22.1032 -1.0982 19.8763 -0.0 -0.0 0.0 0.0 0.0 
1002.22 756.727 -1573.97 12.0844 61.0906 -2.40821 -3.66271 -0.0694739 -0.89156 -3.66227 -0.0126031 -0.894174 -3.66147 0.231268 -0.863843 -3.6625 0.0919431 -0.889524 4.27082 -4.34195 4.78971 4.54485 -11.6328 5.20587 -0.0 0.0 -0.0 8.59416 -9.29561 16.8027 8.93336 -7.43519 48.4321 1.29109 -32.6002 0.377559 -37.4761 -2.68683 3.87356 2.08556 -13.6375 8.25432 -0.0 0.0 -0.0 9.8611 3.67148 -19.4984 -18.5315 33.0139 -53.1759 0.626491 17.2416 -0.0949814 32.1267 0.00425884 4.05068 -0.0946574 -28.9914 -10.8218 0.0 0.0 0.0 2.2663 -8.25398 -9.45725 0.257738 -0.0106989 -0.0381049 34.8076 24.1707 -4.61859 35.4742 -0.0 -0.0 -0.0 0.0 -0.0 11.0022 31.3068 -9.88503 -2.11077 -0.0811364 -0.313751 -4.79653 -19.6468 -0.722571 20.8713 -0.0 -0.0 0.0 0.0 0.0 
